<svg xmlns="http://www.w3.org/2000/svg" width="21.865" height="22" viewBox="0 0 21.865 22">
  <path id="bag_3" d="M309.214,518.43a2.725,2.725,0,0,0-2.049-.93h-.3l-1.108-4.459A1.365,1.365,0,0,0,304.433,512H293.5a1.375,1.375,0,0,0-1.327,1.041l-1.107,4.459h-.3a2.725,2.725,0,0,0-2.049.93,2.762,2.762,0,0,0-.663,2.161l1.365,11A2.74,2.74,0,0,0,292.134,534H305.8a2.74,2.74,0,0,0,2.713-2.409l1.367-11a2.764,2.764,0,0,0-.664-2.161Zm-14.646-3.68h8.8l.687,2.75H293.89Zm-2.434,16.5-1.367-11h16.4l-1.367,11H292.134Zm4.1-8.25a1.375,1.375,0,0,0-1.365,1.375v2.75a1.367,1.367,0,1,0,2.732,0v-2.75A1.375,1.375,0,0,0,296.237,523Zm5.467,0a1.375,1.375,0,0,0-1.367,1.375v2.75a1.367,1.367,0,0,0,2.733,0v-2.75A1.375,1.375,0,0,0,301.7,523Z" transform="translate(-288.035 -512)" fill="#2d4957" fill-rule="evenodd"/>
</svg>
