<svg width="24" height="24" viewBox="0 0 24 24" fill="none" xmlns="http://www.w3.org/2000/svg">
<path d="M17.4 1C15.25 1.00332 13.2359 2.05195 12 3.81113C10.7641 2.05195 8.75 1.00332 6.6 1C3.08398 1 0 4.27129 0 8C0 11.634 2.05195 15.3768 5.93438 18.824C7.7332 20.4182 9.70645 21.8039 11.8164 22.9553C11.9316 23.0146 12.0684 23.0146 12.1836 22.9553C14.2928 21.8039 16.2654 20.418 18.0637 18.824C21.948 15.3768 24 11.634 24 8C24 4.27129 20.916 1 17.4 1V1ZM12 22.1451C10.5309 21.3344 0.8 15.6703 0.8 8C0.8 4.69727 3.50996 1.8 6.6 1.8C8.69336 1.80371 10.623 2.93301 11.6516 4.75645C11.7285 4.87402 11.8596 4.94473 12 4.94473C12.1404 4.94473 12.2715 4.87402 12.3484 4.75645C13.377 2.93301 15.3066 1.80371 17.4 1.8C20.49 1.8 23.2 4.69727 23.2 8C23.2 15.6703 13.4691 21.3344 12 22.1451Z" fill="#2D4957"/>
</svg>
