<svg xmlns="http://www.w3.org/2000/svg" width="17" height="17" viewBox="0 0 17 17">
  <path id="Ig_Logo" data-name="Ig Logo" d="M8.5,1.511a26.063,26.063,0,0,1,3.4.094,4.38,4.38,0,0,1,1.606.283,3.317,3.317,0,0,1,1.606,1.606A4.38,4.38,0,0,1,15.394,5.1c0,.85.094,1.133.094,3.4a26.063,26.063,0,0,1-.094,3.4,4.381,4.381,0,0,1-.283,1.606,3.317,3.317,0,0,1-1.606,1.606,4.38,4.38,0,0,1-1.606.283c-.85,0-1.133.094-3.4.094a26.063,26.063,0,0,1-3.4-.094,4.381,4.381,0,0,1-1.606-.283,3.317,3.317,0,0,1-1.606-1.606A4.38,4.38,0,0,1,1.606,11.9c0-.85-.094-1.133-.094-3.4a26.063,26.063,0,0,1,.094-3.4,4.38,4.38,0,0,1,.283-1.606A3.392,3.392,0,0,1,2.55,2.55a1.6,1.6,0,0,1,.944-.661A4.38,4.38,0,0,1,5.1,1.606a26.063,26.063,0,0,1,3.4-.094M8.5,0A27.906,27.906,0,0,0,5.006.094,5.831,5.831,0,0,0,2.928.472a3.7,3.7,0,0,0-1.511.944A3.7,3.7,0,0,0,.472,2.928,4.3,4.3,0,0,0,.094,5.006,27.906,27.906,0,0,0,0,8.5a27.906,27.906,0,0,0,.094,3.494,5.831,5.831,0,0,0,.378,2.078,3.7,3.7,0,0,0,.944,1.511,3.7,3.7,0,0,0,1.511.944,5.831,5.831,0,0,0,2.078.378A27.905,27.905,0,0,0,8.5,17a27.905,27.905,0,0,0,3.494-.094,5.831,5.831,0,0,0,2.078-.378,3.962,3.962,0,0,0,2.456-2.456,5.831,5.831,0,0,0,.378-2.078c0-.944.094-1.228.094-3.494a27.905,27.905,0,0,0-.094-3.494,5.831,5.831,0,0,0-.378-2.078,3.7,3.7,0,0,0-.944-1.511A3.7,3.7,0,0,0,14.072.472,5.831,5.831,0,0,0,11.994.094,27.906,27.906,0,0,0,8.5,0m0,4.156A4.274,4.274,0,0,0,4.156,8.5,4.344,4.344,0,1,0,8.5,4.156m0,7.178A2.783,2.783,0,0,1,5.667,8.5,2.783,2.783,0,0,1,8.5,5.667,2.783,2.783,0,0,1,11.333,8.5,2.783,2.783,0,0,1,8.5,11.333m4.533-8.406a1.039,1.039,0,1,0,1.039,1.039,1.048,1.048,0,0,0-1.039-1.039" fill-rule="evenodd" opacity="0.67"/>
</svg>
