<svg xmlns="http://www.w3.org/2000/svg" width="20.624" height="22" viewBox="0 0 20.624 22">
  <path id="profile_close_2" d="M436.477,370.347A10.83,10.83,0,0,0,430.758,364a6.894,6.894,0,0,0,2.3-5.129,6.791,6.791,0,0,0-5.949-6.823,6.041,6.041,0,0,0-1.584,0,6.791,6.791,0,0,0-5.944,6.823,6.89,6.89,0,0,0,2.3,5.129,10.828,10.828,0,0,0-5.72,6.343,2.8,2.8,0,0,0,.349,2.5A2.68,2.68,0,0,0,418.7,374h15.235a2.676,2.676,0,0,0,2.2-1.156A2.793,2.793,0,0,0,436.477,370.347Zm-14.2-11.472a4.079,4.079,0,0,1,3.627-4.1,3.186,3.186,0,0,1,.836,0A4.094,4.094,0,0,1,430,359.283,3.965,3.965,0,0,1,425.957,363a4.028,4.028,0,0,1-3.684-4.124ZM418.7,371.25a8.026,8.026,0,0,1,15.235,0H418.7Z" transform="translate(-416.005 -352)" fill="#2d4957" fill-rule="evenodd"/>
</svg>
