<svg xmlns="http://www.w3.org/2000/svg" width="17" height="13.789" viewBox="0 0 17 13.789">
  <path id="Twt_Logo" data-name="Twt Logo" d="M43.383,15.789A9.829,9.829,0,0,0,53.3,5.872V5.4A7.677,7.677,0,0,0,55,3.606a7.84,7.84,0,0,1-1.983.567,3.675,3.675,0,0,0,1.511-1.889,8.663,8.663,0,0,1-2.172.85A3.373,3.373,0,0,0,49.806,2a3.548,3.548,0,0,0-3.494,3.494,1.841,1.841,0,0,0,.094.756,9.764,9.764,0,0,1-7.178-3.683,3.617,3.617,0,0,0-.472,1.794,3.752,3.752,0,0,0,1.511,2.928,3.184,3.184,0,0,1-1.606-.472h0a3.452,3.452,0,0,0,2.833,3.4,2.912,2.912,0,0,1-.944.094,1.607,1.607,0,0,1-.661-.094,3.578,3.578,0,0,0,3.306,2.456,7.131,7.131,0,0,1-4.344,1.511,2.615,2.615,0,0,1-.85-.094,8.914,8.914,0,0,0,5.383,1.7" transform="translate(-38 -2)" fill-rule="evenodd" opacity="0.67"/>
</svg>
